<svg width="20" height="20" viewBox="0 0 20 20" fill="none" xmlns="http://www.w3.org/2000/svg">
<path d="M10 18.4C9.75 18.4 9.5 18.3417 9.29167 18.225C7.73333 17.375 4.99167 16.475 3.275 16.25L3.03333 16.2167C1.94167 16.0833 1.04167 15.0583 1.04167 13.95V3.88332C1.04167 3.22499 1.3 2.62499 1.775 2.19165C2.25 1.75832 2.86667 1.54999 3.51667 1.60832C5.35 1.74999 8.11667 2.66665 9.68334 3.64999L9.88334 3.76665C9.94167 3.79999 10.0667 3.79999 10.1167 3.77499L10.25 3.69165C11.8167 2.70832 14.5833 1.77499 16.425 1.61665C16.4417 1.61665 16.5083 1.61665 16.525 1.61665C17.1333 1.55832 17.7583 1.77499 18.225 2.20832C18.7 2.64165 18.9583 3.24165 18.9583 3.89999V13.9583C18.9583 15.075 18.0583 16.0917 16.9583 16.225L16.6833 16.2583C14.9667 16.4833 12.2167 17.3917 10.6917 18.2333C10.4917 18.35 10.25 18.4 10 18.4ZM3.31667 2.84999C3.05 2.84999 2.80833 2.94165 2.61667 3.11665C2.40833 3.30832 2.29167 3.58332 2.29167 3.88332V13.95C2.29167 14.4417 2.71667 14.9167 3.19167 14.9833L3.44167 15.0167C5.31667 15.2667 8.19167 16.2083 9.85833 17.1167C9.93334 17.15 10.0417 17.1583 10.0833 17.1417C11.75 16.2167 14.6417 15.2667 16.525 15.0167L16.8083 14.9833C17.2833 14.925 17.7083 14.4417 17.7083 13.95V3.89165C17.7083 3.58332 17.5917 3.31665 17.3833 3.11665C17.1667 2.92499 16.8917 2.83332 16.5833 2.84999C16.5667 2.84999 16.5 2.84999 16.4833 2.84999C14.8917 2.99165 12.325 3.84999 10.925 4.72499L10.7917 4.81665C10.3333 5.09999 9.68334 5.09999 9.24167 4.82499L9.04167 4.70832C7.61667 3.83332 5.05 2.98332 3.41667 2.84999C3.38333 2.84999 3.35 2.84999 3.31667 2.84999Z" fill="#787486"/>
<path d="M10 17.7C9.65833 17.7 9.375 17.4167 9.375 17.075V4.57501C9.375 4.23335 9.65833 3.95001 10 3.95001C10.3417 3.95001 10.625 4.23335 10.625 4.57501V17.075C10.625 17.425 10.3417 17.7 10 17.7Z" fill="#787486"/>
<path d="M6.45833 7.70001H4.58333C4.24167 7.70001 3.95833 7.41668 3.95833 7.07501C3.95833 6.73335 4.24167 6.45001 4.58333 6.45001H6.45833C6.8 6.45001 7.08333 6.73335 7.08333 7.07501C7.08333 7.41668 6.8 7.70001 6.45833 7.70001Z" fill="#787486"/>
<path d="M7.08333 10.2H4.58333C4.24167 10.2 3.95833 9.91668 3.95833 9.57501C3.95833 9.23335 4.24167 8.95001 4.58333 8.95001H7.08333C7.425 8.95001 7.70833 9.23335 7.70833 9.57501C7.70833 9.91668 7.425 10.2 7.08333 10.2Z" fill="#787486"/>
</svg>
