<svg width="20" height="20" viewBox="0 0 20 20" fill="none" xmlns="http://www.w3.org/2000/svg">
<path d="M15.3629 12.2331C15.6339 11.6835 15.7771 11.0797 15.7771 10.4583C15.7771 8.24379 13.9756 6.44232 11.7611 6.44232C10.4412 6.44232 9.20944 7.09665 8.46333 8.1695C8.41513 8.16806 8.36751 8.16347 8.31903 8.16347C6.12055 8.16347 4.24019 9.60121 3.64008 11.6586C3.47456 11.6284 3.30101 11.6058 3.15558 11.6058C1.41549 11.6058 0.0001297 13.0214 0.0001297 14.7612C0.0001297 16.501 1.41549 17.9167 3.15558 17.9167H13.4825C15.2223 17.9167 16.6379 16.501 16.6379 14.7612C16.6379 13.7262 16.1348 12.8089 15.3629 12.2331ZM11.7611 7.58976C13.3428 7.58976 14.6296 8.87661 14.6296 10.4583C14.6296 10.9024 14.5264 11.3333 14.3325 11.7254C14.0614 11.6494 13.7771 11.6058 13.4825 11.6058C13.3368 11.6058 13.1635 11.6284 12.9977 11.6586C12.5364 10.0777 11.3184 8.86599 9.78202 8.38809C10.3093 7.88522 11.0144 7.58976 11.7611 7.58976ZM13.4825 16.7692H3.15558C2.04859 16.7692 1.14756 15.8682 1.14756 14.7612C1.14756 13.6542 2.04859 12.7532 3.15558 12.7532C3.23504 12.7532 3.36298 12.7727 3.4978 12.7997V13.3269C3.4978 13.6436 3.75482 13.9006 4.07152 13.9006C4.38821 13.9006 4.64523 13.6436 4.64523 13.3269V12.4035C4.95303 10.6098 6.49146 9.31091 8.31903 9.31091C10.1469 9.31091 11.6856 10.6104 11.9928 12.405V13.3269C11.9928 13.6436 12.2499 13.9006 12.5666 13.9006C12.8832 13.9006 13.1403 13.6436 13.1403 13.3269V12.8C13.2754 12.773 13.4039 12.7532 13.4825 12.7532C14.5895 12.7532 15.4905 13.6542 15.4905 14.7612C15.4905 15.8682 14.5895 16.7692 13.4825 16.7692Z" fill="#787486"/>
<path d="M11.7611 5.29487C12.0778 5.29487 12.3348 5.03784 12.3348 4.72115V3.57372C12.3348 3.25703 12.0778 3 11.7611 3C11.4441 3 11.1874 3.25703 11.1874 3.57372V4.72115C11.1874 5.03784 11.4441 5.29487 11.7611 5.29487Z" fill="#787486"/>
<path d="M18.6457 9.88461H17.4982C17.1813 9.88461 16.9245 10.1416 16.9245 10.4583C16.9245 10.775 17.1813 11.032 17.4982 11.032H18.6457C18.9624 11.032 19.2194 10.775 19.2194 10.4583C19.2194 10.1416 18.9624 9.88461 18.6457 9.88461Z" fill="#787486"/>
<path d="M15.8182 6.97502C15.965 6.97502 16.1116 6.91908 16.2238 6.80692L17.035 5.99568C17.2591 5.77165 17.2591 5.40848 17.035 5.18445C16.811 4.96041 16.4478 4.96041 16.2238 5.18445L15.4125 5.99568C15.1885 6.21972 15.1885 6.58288 15.4125 6.80692C15.5244 6.91908 15.6713 6.97502 15.8182 6.97502Z" fill="#787486"/>
<path d="M7.29827 6.80692C7.41043 6.91908 7.55702 6.97502 7.70389 6.97502C7.85076 6.97502 7.99735 6.91908 8.10951 6.80692C8.33354 6.58288 8.33354 6.21972 8.10951 5.99568L7.29827 5.18445C7.07424 4.96041 6.71107 4.96041 6.48704 5.18445C6.263 5.40848 6.263 5.77165 6.48704 5.99568L7.29827 6.80692Z" fill="#787486"/>
</svg>
