<svg width="20" height="20" viewBox="0 0 20 20" fill="none" xmlns="http://www.w3.org/2000/svg">
<g clip-path="url(#clip0_0_1414)">
<path d="M9.99297 0.800005C9.93062 0.800958 9.86935 0.816475 9.81406 0.845317L1.41406 5.24532C1.34941 5.27927 1.29528 5.33027 1.25754 5.39279C1.21981 5.45532 1.19991 5.52698 1.2 5.6V6.8C1.20001 6.90609 1.24216 7.00782 1.31717 7.08284C1.39218 7.15785 1.49392 7.19999 1.6 7.2H2V7.76016C2 8.24492 2.34572 8.65802 2.8 8.76875V16.0047H1.63984L1.70625 16.0102C1.21344 15.9272 0.799999 16.3499 0.799999 16.8125V17.9117C0.799999 18.3838 1.17362 18.8 1.63984 18.8H18.3203C18.7865 18.8 19.1602 18.415 19.1602 17.9523V16.8531C19.1602 16.3905 18.7865 16.0047 18.3203 16.0047H17.2V8.76875C17.6543 8.65802 18 8.24492 18 7.76016V7.2H18.4C18.5061 7.19999 18.6078 7.15785 18.6828 7.08284C18.7578 7.00782 18.8 6.90609 18.8 6.8V5.6C18.8001 5.52698 18.7802 5.45532 18.7425 5.39279C18.7047 5.33027 18.6506 5.27927 18.5859 5.24532L10.1859 0.845317C10.1264 0.814264 10.0601 0.798681 9.99297 0.800005ZM10 1.65235L18 5.84219V6.4H17.6672C17.624 6.39287 17.5799 6.39287 17.5367 6.4H13.6617C13.6393 6.39625 13.6165 6.39442 13.5937 6.39454C13.5744 6.39496 13.555 6.39678 13.5359 6.4H12.0672C12.024 6.39287 11.9799 6.39287 11.9367 6.4H8.06172C8.03926 6.39625 8.01652 6.39442 7.99375 6.39454C7.97437 6.39496 7.95505 6.39678 7.93594 6.4H6.46719C6.42399 6.39287 6.37991 6.39287 6.33672 6.4H2.46172C2.43926 6.39625 2.41652 6.39442 2.39375 6.39454C2.37437 6.39496 2.35505 6.39678 2.33594 6.4H2V5.84219L10 1.65235ZM2.8 7.2H6V7.76016C6 7.91275 5.91275 8 5.76016 8H3.03984C2.88725 8 2.8 7.91275 2.8 7.76016V7.2ZM6.8 7.2H7.6V7.76016C7.6 8.24492 7.94572 8.65802 8.4 8.76875V16.0047H6V8.76875C6.45428 8.65802 6.8 8.24492 6.8 7.76016V7.2ZM8.4 7.2H11.6V7.76016C11.6 7.91275 11.5127 8 11.3602 8H8.63984C8.48725 8 8.4 7.91275 8.4 7.76016V7.2ZM12.4 7.2H13.2V7.76016C13.2 8.24492 13.5457 8.65802 14 8.76875V16.0047H11.6V8.76875C12.0543 8.65802 12.4 8.24492 12.4 7.76016V7.2ZM14 7.2H17.2V7.76016C17.2 7.91275 17.1127 8 16.9602 8H14.2398C14.0873 8 14 7.91275 14 7.76016V7.2ZM3.6 8.8H5.2V16H3.6V8.8ZM9.2 8.8H10.8V16H9.2V8.8ZM14.8 8.8H16.4V16H14.8V8.8ZM1.59375 16.8016C1.60904 16.8035 1.62443 16.8045 1.63984 16.8047H18.3203C18.3341 16.8047 18.3602 16.827 18.3602 16.8531V17.9523C18.3602 17.9785 18.3341 18 18.3203 18H1.63984C1.62607 18 1.6 18.0093 1.6 17.9117V16.8125C1.6 16.8033 1.59653 16.8031 1.59375 16.8016Z" fill="#787486" stroke="#787486" stroke-width="0.2"/>
</g>
<defs>
<clipPath id="clip0_0_1414">
<rect width="20" height="20" fill="white"/>
</clipPath>
</defs>
</svg>
